<svg xmlns="http://www.w3.org/2000/svg"><style>:root{visibility:hidden}:target{visibility:visible}</style><svg viewBox="0 0 16 16" id="check"><path d="M7.24 13.42c-.72.73-1.9.73-2.62 0L.54 9.35a1.86 1.86 0 0 1 2.63-2.63L5.6 9.15c.18.18.48.18.66 0l6.57-6.57a1.86 1.86 0 0 1 2.63 2.63l-8.22 8.21Z"></path></svg><svg viewBox="0 0 16 16" fill="none" id="clock"><path d="M8 0a8 8 0 0 0 0 16A8 8 0 0 0 8 0Zm0 14.3a6.3 6.3 0 1 1 .01-12.61A6.3 6.3 0 0 1 8 14.29Z" fill="#C7C7C7"></path><path d="M12.17 7.75h-3.6V3.43a.66.66 0 0 0-1.31 0v4.98c0 .37.3.66.66.66h4.25a.66.66 0 0 0 0-1.32Z" fill="#C7C7C7"></path></svg></svg>